<mxfile host="app.diagrams.net" modified="2021-08-26T20:46:51.490Z" agent="5.0 (Macintosh; Intel Mac OS X 10_15_7) AppleWebKit/537.36 (KHTML, like Gecko) Chrome/92.0.4515.159 Safari/537.36" etag="ZenbO3nIepCsm77nst3G" version="14.9.9" type="github">
  <diagram id="C5RBs43oDa-KdzZeNtuy" name="Page-1">
    <mxGraphModel dx="1773" dy="593" grid="1" gridSize="10" guides="1" tooltips="1" connect="1" arrows="1" fold="1" page="1" pageScale="1" pageWidth="827" pageHeight="1169" background="none" math="0" shadow="0">
      <root>
        <mxCell id="WIyWlLk6GJQsqaUBKTNV-0" />
        <mxCell id="WIyWlLk6GJQsqaUBKTNV-1" parent="WIyWlLk6GJQsqaUBKTNV-0" />
        <mxCell id="MXT5RrwsRLYVAkFM8AoM-8" value="" style="edgeStyle=orthogonalEdgeStyle;rounded=0;orthogonalLoop=1;jettySize=auto;html=1;" parent="WIyWlLk6GJQsqaUBKTNV-1" source="MXT5RrwsRLYVAkFM8AoM-0" target="MXT5RrwsRLYVAkFM8AoM-2" edge="1">
          <mxGeometry relative="1" as="geometry" />
        </mxCell>
        <mxCell id="MXT5RrwsRLYVAkFM8AoM-0" value="main" style="ellipse;whiteSpace=wrap;html=1;" parent="WIyWlLk6GJQsqaUBKTNV-1" vertex="1">
          <mxGeometry x="-827" width="120" height="80" as="geometry" />
        </mxCell>
        <mxCell id="MXT5RrwsRLYVAkFM8AoM-5" value="" style="edgeStyle=orthogonalEdgeStyle;rounded=0;orthogonalLoop=1;jettySize=auto;html=1;" parent="WIyWlLk6GJQsqaUBKTNV-1" source="MXT5RrwsRLYVAkFM8AoM-2" target="MXT5RrwsRLYVAkFM8AoM-3" edge="1">
          <mxGeometry relative="1" as="geometry" />
        </mxCell>
        <mxCell id="MXT5RrwsRLYVAkFM8AoM-2" value="int Multiplikator = E" style="shape=process;whiteSpace=wrap;html=1;backgroundOutline=1;" parent="WIyWlLk6GJQsqaUBKTNV-1" vertex="1">
          <mxGeometry x="-827" y="140" width="120" height="60" as="geometry" />
        </mxCell>
        <mxCell id="MXT5RrwsRLYVAkFM8AoM-6" value="" style="edgeStyle=orthogonalEdgeStyle;rounded=0;orthogonalLoop=1;jettySize=auto;html=1;" parent="WIyWlLk6GJQsqaUBKTNV-1" source="MXT5RrwsRLYVAkFM8AoM-3" target="MXT5RrwsRLYVAkFM8AoM-4" edge="1">
          <mxGeometry relative="1" as="geometry" />
        </mxCell>
        <mxCell id="MXT5RrwsRLYVAkFM8AoM-3" value="V&lt;br&gt;int Multiplikant&lt;br&gt;int Multiplikator" style="shape=process;whiteSpace=wrap;html=1;backgroundOutline=1;" parent="WIyWlLk6GJQsqaUBKTNV-1" vertex="1">
          <mxGeometry x="-827" y="340" width="120" height="60" as="geometry" />
        </mxCell>
        <mxCell id="MXT5RrwsRLYVAkFM8AoM-10" value="" style="edgeStyle=orthogonalEdgeStyle;rounded=0;orthogonalLoop=1;jettySize=auto;html=1;" parent="WIyWlLk6GJQsqaUBKTNV-1" source="MXT5RrwsRLYVAkFM8AoM-4" target="MXT5RrwsRLYVAkFM8AoM-9" edge="1">
          <mxGeometry relative="1" as="geometry" />
        </mxCell>
        <mxCell id="MXT5RrwsRLYVAkFM8AoM-4" value="A" style="shape=process;whiteSpace=wrap;html=1;backgroundOutline=1;" parent="WIyWlLk6GJQsqaUBKTNV-1" vertex="1">
          <mxGeometry x="-827" y="440" width="120" height="60" as="geometry" />
        </mxCell>
        <mxCell id="MXT5RrwsRLYVAkFM8AoM-9" value="" style="ellipse;whiteSpace=wrap;html=1;" parent="WIyWlLk6GJQsqaUBKTNV-1" vertex="1">
          <mxGeometry x="-827" y="530" width="120" height="80" as="geometry" />
        </mxCell>
        <mxCell id="MXT5RrwsRLYVAkFM8AoM-14" value="" style="edgeStyle=orthogonalEdgeStyle;rounded=0;orthogonalLoop=1;jettySize=auto;html=1;" parent="WIyWlLk6GJQsqaUBKTNV-1" source="MXT5RrwsRLYVAkFM8AoM-11" target="MXT5RrwsRLYVAkFM8AoM-12" edge="1">
          <mxGeometry relative="1" as="geometry" />
        </mxCell>
        <mxCell id="MXT5RrwsRLYVAkFM8AoM-11" value="E" style="ellipse;whiteSpace=wrap;html=1;" parent="WIyWlLk6GJQsqaUBKTNV-1" vertex="1">
          <mxGeometry x="-627" y="20" width="120" height="80" as="geometry" />
        </mxCell>
        <mxCell id="MXT5RrwsRLYVAkFM8AoM-20" value="" style="edgeStyle=orthogonalEdgeStyle;rounded=0;orthogonalLoop=1;jettySize=auto;html=1;" parent="WIyWlLk6GJQsqaUBKTNV-1" source="MXT5RrwsRLYVAkFM8AoM-12" target="MXT5RrwsRLYVAkFM8AoM-17" edge="1">
          <mxGeometry relative="1" as="geometry" />
        </mxCell>
        <mxCell id="MXT5RrwsRLYVAkFM8AoM-12" value="Input E = Insert Number" style="rounded=0;whiteSpace=wrap;html=1;" parent="WIyWlLk6GJQsqaUBKTNV-1" vertex="1">
          <mxGeometry x="-627" y="140" width="120" height="60" as="geometry" />
        </mxCell>
        <mxCell id="MXT5RrwsRLYVAkFM8AoM-15" value="return E" style="ellipse;whiteSpace=wrap;html=1;" parent="WIyWlLk6GJQsqaUBKTNV-1" vertex="1">
          <mxGeometry x="-626" y="330" width="120" height="80" as="geometry" />
        </mxCell>
        <mxCell id="MXT5RrwsRLYVAkFM8AoM-21" value="" style="edgeStyle=orthogonalEdgeStyle;rounded=0;orthogonalLoop=1;jettySize=auto;html=1;" parent="WIyWlLk6GJQsqaUBKTNV-1" source="MXT5RrwsRLYVAkFM8AoM-17" target="MXT5RrwsRLYVAkFM8AoM-15" edge="1">
          <mxGeometry relative="1" as="geometry" />
        </mxCell>
        <mxCell id="MXT5RrwsRLYVAkFM8AoM-17" value="return E" style="rounded=0;whiteSpace=wrap;html=1;" parent="WIyWlLk6GJQsqaUBKTNV-1" vertex="1">
          <mxGeometry x="-627" y="240" width="120" height="60" as="geometry" />
        </mxCell>
        <mxCell id="MXT5RrwsRLYVAkFM8AoM-18" value="int Multiplikant = E" style="shape=process;whiteSpace=wrap;html=1;backgroundOutline=1;" parent="WIyWlLk6GJQsqaUBKTNV-1" vertex="1">
          <mxGeometry x="-827" y="240" width="120" height="60" as="geometry" />
        </mxCell>
        <mxCell id="MXT5RrwsRLYVAkFM8AoM-19" value="V" style="ellipse;whiteSpace=wrap;html=1;" parent="WIyWlLk6GJQsqaUBKTNV-1" vertex="1">
          <mxGeometry x="-437" y="20" width="120" height="80" as="geometry" />
        </mxCell>
        <mxCell id="MXT5RrwsRLYVAkFM8AoM-28" value="" style="edgeStyle=orthogonalEdgeStyle;rounded=0;orthogonalLoop=1;jettySize=auto;html=1;" parent="WIyWlLk6GJQsqaUBKTNV-1" source="MXT5RrwsRLYVAkFM8AoM-22" target="MXT5RrwsRLYVAkFM8AoM-23" edge="1">
          <mxGeometry relative="1" as="geometry" />
        </mxCell>
        <mxCell id="MXT5RrwsRLYVAkFM8AoM-22" value="A" style="ellipse;whiteSpace=wrap;html=1;" parent="WIyWlLk6GJQsqaUBKTNV-1" vertex="1">
          <mxGeometry x="-247" y="20" width="120" height="80" as="geometry" />
        </mxCell>
        <mxCell id="MXT5RrwsRLYVAkFM8AoM-29" value="" style="edgeStyle=orthogonalEdgeStyle;rounded=0;orthogonalLoop=1;jettySize=auto;html=1;" parent="WIyWlLk6GJQsqaUBKTNV-1" source="MXT5RrwsRLYVAkFM8AoM-23" target="MXT5RrwsRLYVAkFM8AoM-24" edge="1">
          <mxGeometry relative="1" as="geometry" />
        </mxCell>
        <mxCell id="MXT5RrwsRLYVAkFM8AoM-23" value="Print sum" style="rounded=0;whiteSpace=wrap;html=1;" parent="WIyWlLk6GJQsqaUBKTNV-1" vertex="1">
          <mxGeometry x="-247" y="140" width="120" height="60" as="geometry" />
        </mxCell>
        <mxCell id="MXT5RrwsRLYVAkFM8AoM-24" value="" style="ellipse;whiteSpace=wrap;html=1;" parent="WIyWlLk6GJQsqaUBKTNV-1" vertex="1">
          <mxGeometry x="-247" y="230" width="120" height="80" as="geometry" />
        </mxCell>
        <mxCell id="MXT5RrwsRLYVAkFM8AoM-25" value="parameter: z채hler&amp;nbsp;&lt;br&gt;sum, Multiplikator, Multiplikator" style="rounded=0;whiteSpace=wrap;html=1;" parent="WIyWlLk6GJQsqaUBKTNV-1" vertex="1">
          <mxGeometry x="-437" y="140" width="120" height="60" as="geometry" />
        </mxCell>
        <mxCell id="MXT5RrwsRLYVAkFM8AoM-27" value="if z채hler &amp;lt;= Multiplikator" style="shape=trapezoid;perimeter=trapezoidPerimeter;whiteSpace=wrap;html=1;fixedSize=1;" parent="WIyWlLk6GJQsqaUBKTNV-1" vertex="1">
          <mxGeometry x="-437" y="250" width="120" height="40" as="geometry" />
        </mxCell>
        <mxCell id="MXT5RrwsRLYVAkFM8AoM-30" value="sum = sum + Multiplikant" style="rounded=0;whiteSpace=wrap;html=1;" parent="WIyWlLk6GJQsqaUBKTNV-1" vertex="1">
          <mxGeometry x="-437" y="340" width="120" height="60" as="geometry" />
        </mxCell>
        <mxCell id="MXT5RrwsRLYVAkFM8AoM-31" value="z채hler = z채hler + 1" style="rounded=0;whiteSpace=wrap;html=1;" parent="WIyWlLk6GJQsqaUBKTNV-1" vertex="1">
          <mxGeometry x="-437" y="440" width="120" height="60" as="geometry" />
        </mxCell>
        <mxCell id="MXT5RrwsRLYVAkFM8AoM-32" value="" style="shape=trapezoid;perimeter=trapezoidPerimeter;whiteSpace=wrap;html=1;fixedSize=1;rotation=-180;" parent="WIyWlLk6GJQsqaUBKTNV-1" vertex="1">
          <mxGeometry x="-437" y="540" width="120" height="40" as="geometry" />
        </mxCell>
        <mxCell id="MXT5RrwsRLYVAkFM8AoM-33" value="return sum" style="ellipse;whiteSpace=wrap;html=1;" parent="WIyWlLk6GJQsqaUBKTNV-1" vertex="1">
          <mxGeometry x="-437" y="620" width="120" height="80" as="geometry" />
        </mxCell>
      </root>
    </mxGraphModel>
  </diagram>
</mxfile>
